# xmcd CD database file
# Copyright (C) 1996 Ti Kan
#
# Track frame offsets:
#	150
#	12100
#	26249
#	37881
#	50982
#	63127
#	77261
#	92577
#	106743
#	120531
#	135351
#	148894
#	163251
#	176333
#	191217
#	202742
#	215269
#	227329
#	240290
#	254553
# Disc length: 3545 seconds
#
# Revision: 2
# Processed by: cddbd v1.5.1PL0 Copyright (c) Steve Scherf et al.
# Submitted via: CDCOPY 4.900
#
DISCID=000dd714
DTITLE=Ella Fitzgerald - The Memorial Album
DYEAR=1900
DGENRE=
TTITLE0=A Tisket, A Tasket
TTITLE1=Darktown Strutters Ball
TTITLE2=I'll Chase The Blues Away
TTITLE3=Shine
TTITLE4=My Last Affair
TTITLE5=I Want The Waiter (With The Water)
TTITLE6=I Got A Guy
TTITLE7=My Heart Belongs To Daddy
TTITLE8='Taint What You Do
TTITLE9=Undecided
TTITLE10=Chew-Chew-Chew
TTITLE11=Holiday In Harlem
TTITLE12=Betcha Nickel
TTITLE13=Stairway To The Stars
TTITLE14=Baby, Won't Yo Please Come Home
TTITLE15=Sugar Blues
TTITLE16=The Lonesomest Gal In Town
TTITLE17=Little White Lies
TTITLE18=Five O'Clock Whistle
TTITLE19=Three Little Words
EXTD=
EXTT0=
EXTT1=
EXTT2=
EXTT3=
EXTT4=
EXTT5=
EXTT6=
EXTT7=
EXTT8=
EXTT9=
EXTT10=
EXTT11=
EXTT12=
EXTT13=
EXTT14=
EXTT15=
EXTT16=
EXTT17=
EXTT18=
EXTT19=
PLAYORDER=
